<svg width="256" height="160" viewBox="0 0 256 160" fill="none" xmlns="http://www.w3.org/2000/svg">
<circle cx="128.772" cy="80" r="77.5" fill="#F8F8F8" stroke="#F0F0F0" stroke-width="5"/>
<circle cx="128.393" cy="79.6208" r="56.872" fill="#F1F1F1"/>
<path d="M22.0515 86.0165C22.0705 84.7011 22.0961 83.4976 22.1283 82.4058C22.1585 81.2821 22.1954 80.2702 22.2388 79.3701L22.3974 75.5142C19.9281 76.0437 17.3197 76.9339 14.5722 78.1848C13.9164 78.4797 13.3009 78.644 12.7259 78.6777C11.8634 78.7283 11.0507 78.5355 10.2879 78.0994C9.55702 77.6615 8.95677 76.9914 8.48717 76.0894C8.63763 75.3754 8.95813 74.8277 9.44865 74.4463C9.97111 74.0631 10.6852 73.6686 11.5911 73.2629C15.9359 71.3733 20.9684 70.2769 26.6884 69.9736C29.4038 69.8144 32.2375 69.7604 35.1895 69.8117C38.1735 69.8612 39.922 69.8869 40.435 69.8888L43.8033 69.9318C43.9311 69.9243 44.1387 69.9121 44.4262 69.8952C44.7457 69.8765 45.0059 69.9414 45.207 70.0899C45.4061 70.2064 45.5151 70.4244 45.5338 70.7439C45.5806 71.5425 45.0328 72.0394 43.8902 72.2346C41.0339 72.7227 39.0025 73.0661 37.7961 73.2651C36.554 73.402 35.6154 73.5212 34.9802 73.6225C32.4978 73.9283 30.6365 74.1657 29.3963 74.3346C28.6334 74.4434 28.1119 74.5701 27.8319 74.7148C27.55 74.8275 27.3696 75.0304 27.2906 75.3235C27.2417 75.5828 27.2106 76.1456 27.1972 77.0119C27.1555 79.0338 27.0233 82.5195 26.8006 87.469C26.5498 91.9394 26.4102 95.0248 26.3817 96.7254C26.404 97.6537 26.262 98.7839 25.9554 100.116C25.7485 100.962 25.5737 101.533 25.4308 101.83C25.2861 102.095 25.0558 102.269 24.7401 102.351C24.4564 102.432 23.8983 102.481 23.0658 102.497C22.4589 102.533 21.9722 102.433 21.6058 102.198C21.2695 101.93 21.0873 101.556 21.0592 101.076C21.0536 100.981 21.0734 100.771 21.1185 100.448C21.6584 97.6274 21.9693 92.817 22.0515 86.0165ZM56.5714 98.1288C56.2765 98.0179 55.9852 97.9708 55.6977 97.9877C55.4102 98.0045 55.1593 98.0994 54.9451 98.2722C54.7609 98.4113 54.5494 98.632 54.3107 98.9345C53.9499 99.3403 53.5693 99.6832 53.169 99.9631C52.7987 100.209 52.1081 100.458 51.0971 100.71C50.6536 100.8 50.2881 100.853 50.0006 100.87C48.6589 100.949 47.2365 100.744 45.7333 100.255C44.2602 99.7321 43.1958 99.0733 42.5401 98.2783C41.8488 97.4213 41.4891 96.4807 41.4611 95.4566C41.4032 93.9214 41.9522 92.3506 43.1081 90.7441C44.2359 89.2035 45.2771 88.1007 46.2319 87.4356C47.2185 86.7687 48.5856 86.3039 50.3333 86.0412C50.7166 86.0187 51.2559 85.923 51.9512 85.754C52.6785 85.5831 53.0355 85.3859 53.0224 85.1623C52.9962 84.7151 52.7652 84.3279 52.3293 84.0009C51.9234 83.64 51.1136 83.4952 49.8997 83.5663C49.4524 83.5925 48.7835 83.6638 47.8927 83.7802C47.002 83.8965 46.381 83.965 46.0296 83.9856C44.9434 84.0492 44.1505 83.9194 43.6507 83.5961C43.5192 83.5397 43.4375 83.24 43.4056 82.6969C43.3495 81.7386 43.6493 81.112 44.3052 80.8171C45.6488 80.2254 47.0545 79.8705 48.5221 79.7524C50.3749 79.6438 52.1083 79.9589 53.7223 80.6977C55.3664 81.4027 56.5914 82.3406 57.3973 83.5114C58.2032 84.6822 58.7807 86.3313 59.1298 88.4585C59.5259 90.8394 59.8325 93.8826 60.0498 97.5883C60.1097 98.6105 60.0006 99.2099 59.7225 99.3865C59.4763 99.5612 59.2414 99.6551 59.0177 99.6683C58.7302 99.6851 58.454 99.6212 58.1891 99.4764C57.9542 99.2979 57.6837 99.0573 57.3775 98.7547C57.0694 98.4202 56.8007 98.2115 56.5714 98.1288ZM48.9667 97.9977C50.4419 97.4624 51.8693 96.6575 53.2487 95.5829C53.5551 95.3406 53.8257 95.0362 54.0607 94.6698C54.2956 94.3034 54.4423 94.0705 54.5005 93.9709C54.5588 93.8713 54.5908 93.597 54.5965 93.1478C54.6323 92.6649 54.6258 92.2806 54.577 91.995C54.5395 91.901 54.4606 91.6492 54.3404 91.2396C54.2522 90.828 54.1188 90.4672 53.9404 90.1571C53.7656 89.9109 53.496 89.6863 53.1315 89.4833C52.767 89.2803 52.442 89.2032 52.1563 89.252C51.5512 89.3195 50.9095 89.5815 50.231 90.038C49.5526 90.4945 48.9305 91.092 48.3647 91.8303C47.8008 92.6007 47.3657 93.3795 47.0592 94.1668C46.7829 94.9202 46.6634 95.6164 46.7009 96.2553C46.8153 97.1141 47.0886 97.675 47.5208 97.9382C47.7538 98.0848 48.03 98.1488 48.3494 98.13C48.605 98.115 48.8108 98.0709 48.9667 97.9977ZM76.4308 93.7429C76.1392 95.3307 75.5715 96.5821 74.7276 97.497C73.8837 98.412 72.8548 98.9051 71.6409 98.9762C70.0756 99.068 68.4709 98.4889 66.827 97.239C68.0034 96.5289 68.7476 96.1006 69.0596 95.9541C69.8677 95.5221 70.4916 94.9566 70.9315 94.2577C71.4033 93.5568 71.6148 92.7912 71.5661 91.9606C71.5493 91.6731 71.5202 91.4504 71.4789 91.2925C71.3418 90.5954 71.1381 89.854 70.8677 89.0685C70.5953 88.251 70.4198 87.7164 70.3409 87.4646C70.1493 86.9309 69.8939 86.1285 69.5747 85.0573C69.3362 84.2699 69.1127 83.4656 68.9043 82.6444C68.6959 81.8232 68.5729 81.0931 68.5355 80.4542C68.4737 79.4 68.6411 78.4286 69.0377 77.5398C69.4645 76.6173 70.2135 75.7239 71.2847 74.8597C71.7433 74.4802 72.2686 74.1449 72.8606 73.8538C73.4845 73.5608 74.083 73.3814 74.6561 73.3158C75.0677 73.2275 75.5356 73.2802 76.0598 73.4739C76.616 73.6656 76.9673 73.9175 77.1138 74.2295C77.2585 74.5095 77.2349 74.9276 77.0431 75.4838C76.8495 76.008 76.6004 76.4073 76.296 76.6815C74.5237 78.1638 73.7511 79.7478 73.9781 81.4334C74.0982 82.388 74.4362 83.7786 74.992 85.6052C75.3808 86.7684 75.6643 87.7775 75.8427 88.6326C75.8896 88.8863 75.9994 89.3927 76.1722 90.1519C76.3768 90.9092 76.4979 91.6073 76.5354 92.2462C76.5691 92.8212 76.5342 93.3201 76.4308 93.7429ZM83.2745 81.0806C83.0359 80.8382 82.8603 80.576 82.7476 80.2941C82.6668 80.0104 82.5795 79.6148 82.4857 79.1074C82.7339 78.4197 83.2413 78.0534 84.008 78.0084C84.395 78.0499 84.6685 78.0659 84.8282 78.0565C85.4671 78.0191 85.8552 77.804 85.9924 77.4113C86.1297 77.0186 86.1833 76.5666 86.1533 76.0555C86.1234 75.5444 86.1 75.1451 86.0831 74.8576L86.0583 71.9741C86.0528 71.3333 86.0388 70.5488 86.0165 69.6205C86.0242 68.6584 86.0234 67.5525 86.0143 66.3029C86.0069 65.6302 86.1376 65.1257 86.4064 64.7894C86.7071 64.4512 87.129 64.2662 87.672 64.2344C88.0554 64.2119 88.3607 64.226 88.5881 64.2768C89.9147 64.4875 90.8175 64.8513 91.2966 65.3682C91.7757 65.885 92.1269 66.6818 92.3503 67.7586C92.3954 67.9803 92.3906 68.4454 92.336 69.1538L91.9117 76.6795C91.891 76.8731 91.8572 77.1155 91.8101 77.4067C91.7612 77.6661 91.7405 77.8596 91.748 77.9874C91.7649 78.2749 91.9358 78.4572 92.2609 78.5343C92.586 78.6114 93.1788 78.6087 94.0395 78.5262C95.4902 78.1206 96.5961 77.8474 97.3572 77.7066C97.515 77.6653 97.7697 77.6343 98.1211 77.6137C98.5044 77.5912 98.7628 77.6242 98.8962 77.7125C99.0277 77.7689 99.1348 77.955 99.2174 78.2707C99.3301 78.5526 99.3977 78.8852 99.4201 79.2685C99.4407 79.6199 99.4116 79.9422 99.3326 80.2353C99.2855 80.5266 99.1991 80.6919 99.0732 80.7313C98.2256 81.0375 97.2156 81.305 96.043 81.5341C94.6523 81.872 93.6272 82.1565 92.9676 82.3875C92.6219 82.504 92.2845 82.7642 91.9556 83.1681C91.6267 83.5721 91.4556 83.9347 91.4424 84.256C91.4703 85.8251 91.516 87.4251 91.5796 89.0562C91.6207 90.3039 91.7416 91.547 91.9425 92.7854C92.1001 93.8339 92.3527 94.5884 92.7002 95.0489C93.0459 95.4774 93.5382 95.6729 94.1771 95.6355C94.6882 95.6055 95.4127 95.3867 96.3504 94.9791C96.8484 94.7255 97.2891 94.5875 97.6724 94.565C98.2794 94.5295 98.7303 94.8396 99.0252 95.4955C99.1342 95.7135 99.1952 95.9343 99.2083 96.1579C99.2327 96.5732 99.0926 96.9179 98.7881 97.1922C98.5156 97.4647 98.1294 97.7117 97.6295 97.9333C96.6918 98.3409 95.7287 98.5897 94.7403 98.6797C93.3986 98.7584 92.118 98.5129 90.8986 97.9433C89.6773 97.3418 88.6806 96.4706 87.9085 95.3298C87.1683 94.1872 86.8012 92.8464 86.8072 91.3074C86.8035 90.6986 86.7633 89.7393 86.6865 88.4295C86.5648 86.3531 86.3613 84.2494 86.0761 82.1184C86.0329 81.9286 85.9136 81.8074 85.7182 81.7548C85.5209 81.6702 85.1958 81.5931 84.743 81.5234C84.0007 81.4387 83.5112 81.2911 83.2745 81.0806ZM115.216 87.5742C115.654 85.2085 115.9 83.383 115.953 82.0977C116.036 80.7786 116.253 79.8363 116.604 79.2707C116.956 78.7052 117.579 78.3962 118.473 78.3437C119.815 78.2651 120.903 78.5058 121.737 79.0659C122.572 79.6261 123.02 80.4332 123.081 81.4874C123.089 81.6152 123.072 81.8726 123.03 82.2597C122.705 84.9073 122.082 87.6845 121.163 90.5913C119.711 95.3565 118.132 100.129 116.425 104.909C115.898 106.318 115.066 107.698 113.927 109.047C113.658 109.383 113.396 109.558 113.14 109.573C112.757 109.596 112.445 109.197 112.205 108.378C111.962 107.527 111.818 106.702 111.771 105.903C111.717 104.977 111.758 104.045 111.896 103.107C112.035 102.202 112.243 101.099 112.519 99.801C112.767 98.5684 112.938 97.6448 113.03 97.0304C113.12 96.384 113.158 95.933 113.143 95.6775C113.085 94.6872 112.558 93.9007 111.562 93.3179C109.837 92.3292 108.495 91.0295 107.535 89.419C106.605 87.7746 105.816 85.8014 105.168 83.4993C105.131 83.4054 105.106 83.2625 105.095 83.0709C105.061 82.4959 105.256 81.9876 105.679 81.5461C106.102 81.1046 106.601 80.867 107.176 80.8333C107.527 80.8127 107.834 80.8588 108.097 80.9716C108.949 81.2743 109.63 81.6831 110.141 82.1981C110.65 82.6811 111.042 83.3473 111.316 84.1967C111.554 84.9841 111.89 85.7978 112.324 86.6379C112.758 87.4779 113.013 87.9919 113.088 88.1798L113.851 89.7218L114.906 89.66L115.216 87.5742ZM162.942 71.9861C162.801 72.3149 162.341 73.2234 161.563 74.7115C162.39 75.1438 162.966 75.4145 163.293 75.5236C165.024 76.0632 166.343 76.9636 167.25 78.2246C168.188 79.4519 168.702 80.8481 168.794 82.4134C168.884 83.9468 168.574 85.4876 167.863 87.0359C166.098 90.8257 163.076 93.9519 158.796 96.4146C157.742 97.0214 156.688 97.3556 155.634 97.4175C154.1 97.5074 152.647 97.0476 151.273 96.0383C150.738 95.653 150.104 95.2254 149.371 94.7554C149.318 94.9509 149.252 95.1792 149.171 95.4403C149.124 95.7316 149.056 95.9439 148.968 96.0773C148.618 96.6748 148.156 96.9904 147.581 97.0241C147.07 97.0541 146.594 96.8736 146.155 96.4827C144.943 95.4959 144.298 94.3317 144.219 92.99C144.159 91.9677 144.091 91.0742 144.014 90.3094C143.937 89.5446 143.867 88.9075 143.805 88.3983C143.736 87.7613 143.657 86.9645 143.569 86.008C143.481 85.0515 143.399 83.9344 143.325 82.6566C143.182 80.2288 143.183 78.049 143.326 76.1173C143.512 73.2855 144.029 70.6107 144.875 68.0929C145.533 66.1951 146.582 64.6751 148.021 63.5329C149.493 62.3888 151.261 61.6601 153.326 61.3467C154.281 61.2266 155.014 61.1515 155.525 61.1216C157.889 60.983 159.9 61.378 161.557 62.3066C162.417 62.769 163.096 63.4024 163.591 64.2067C164.119 65.0092 164.411 65.8896 164.468 66.848C164.514 67.6466 164.385 68.4556 164.081 69.2748L163.658 70.2612C163.464 70.7855 163.226 71.3604 162.942 71.9861ZM158.923 68.2309C159.058 67.8062 159.162 67.111 159.233 66.1451L159.315 65.0825C158.333 64.7234 157.41 64.5692 156.548 64.6197C155.813 64.6628 155.133 64.8149 154.507 65.076C153.159 65.6037 152.05 66.358 151.177 67.3387C150.335 68.2856 149.675 69.3181 149.195 70.436C148.748 71.5521 148.315 72.9238 147.898 74.551C147.588 75.8194 147.478 77.2202 147.567 78.7536C147.616 79.5841 147.751 80.7943 147.973 82.3841C148.065 82.8595 148.174 83.6384 148.302 84.7208C148.384 85.5815 148.664 87.3441 149.141 90.0088L149.425 91.5788C149.621 91.6315 149.944 91.6766 150.395 91.7143C151.006 91.7426 151.476 91.8432 151.807 92.0162C152.104 92.159 152.407 92.4137 152.717 92.7802C153.025 93.1147 153.265 93.3732 153.436 93.5555C155.33 93.0597 156.913 92.1816 158.186 90.9209C159.49 89.6584 160.742 88.0464 161.941 86.0848C162.842 84.4934 163.384 83.0833 163.568 81.8544C163.636 81.3696 163.659 80.9355 163.636 80.5521C163.586 79.6896 163.308 79.0488 162.802 78.6297C162.329 78.2086 161.693 78.0216 160.894 78.0684C160.415 78.0965 159.971 78.1866 159.564 78.3387C158.151 78.8383 156.734 79.8349 155.315 81.3285C154.588 82.0443 153.841 82.4247 153.074 82.4696C152.595 82.4977 152.092 82.383 151.564 82.1255C150.936 81.8096 150.402 81.4563 149.963 81.0653C149.523 80.6744 149.14 80.1519 148.813 79.4979L149.87 78.6666C150.972 77.7686 151.815 77.1261 152.402 76.7392C155.403 74.8963 157.577 72.0602 158.923 68.2309ZM179.129 70.9889C179.077 71.1843 178.849 71.406 178.447 71.654C178.077 71.9001 177.77 72.1265 177.525 72.3331L176.142 71.693C174.791 71.067 173.863 70.5604 173.36 70.1732C173.093 69.9965 172.951 69.7644 172.934 69.4769C172.923 69.2853 172.978 69.1218 173.098 68.9865C173.248 68.8174 173.467 68.7245 173.755 68.7076C175.001 68.6346 176.537 68.865 178.363 69.3991C178.557 69.4198 178.745 69.6331 178.929 70.039C179.112 70.413 179.178 70.7296 179.129 70.9889ZM175.339 80.1545C175.411 79.7336 175.457 79.4263 175.478 79.2328C175.498 79.0393 175.502 78.8307 175.489 78.6071C175.463 78.1598 175.57 77.8009 175.811 77.5304C176.083 77.258 176.603 77.0993 177.369 77.0543C178.264 77.0019 179.063 77.2435 179.768 77.7792C180.503 78.2811 180.976 78.9745 181.188 79.8596C181.31 80.3013 181.403 80.7927 181.467 81.3339C181.531 81.875 181.567 82.2255 181.577 82.3852L182.728 90.5398C182.874 91.3967 182.786 92.0751 182.463 92.5748C182.169 93.0408 181.56 93.3009 180.633 93.3553C179.834 93.4021 179.135 93.2187 178.533 92.8052C177.964 92.3898 177.595 91.8345 177.426 91.1392L175.584 81.0537L175.339 80.1545ZM198.125 68.1923C198.281 68.1191 198.629 68.0506 199.171 67.9868C199.742 67.8892 200.251 67.8273 200.698 67.801C201.593 67.7486 202.44 68.2599 203.24 69.3349L202.646 69.8506C201.943 70.4367 200.913 70.9138 199.556 71.2819C198.378 71.96 197.497 72.5245 196.915 72.9754C196.364 73.4244 195.96 73.9129 195.702 74.4408C195.477 74.9669 195.387 75.6293 195.434 76.4279C195.457 76.8113 195.611 77.796 195.896 79.382L196.254 81.3805C196.653 83.8253 196.983 85.6171 197.242 86.7558C197.33 87.1674 197.487 87.655 197.712 88.2188C197.968 88.7488 198.21 89.0551 198.439 89.1378C198.669 89.2206 199.106 89.0346 199.753 88.58C200.941 86.9717 201.709 85.8528 202.056 85.2234C202.143 85.0581 202.287 84.7772 202.488 84.3807C202.689 83.9843 202.896 83.6837 203.108 83.4789C203.319 83.2421 203.584 83.1144 203.903 83.0957C203.967 83.0919 204.129 83.1145 204.388 83.1634C204.908 83.2932 205.322 83.5094 205.628 83.812C205.966 84.1127 206.153 84.5665 206.189 85.1735C206.205 85.461 206.202 85.6696 206.177 85.7992C206.06 87.0883 205.681 88.2645 205.038 89.328C204.395 90.3914 203.527 91.452 202.436 92.5097C202.013 92.9512 201.29 93.2019 200.268 93.2619C199.15 93.3274 198.033 93.1365 196.917 92.6891C195.802 92.2736 195.03 91.6777 194.6 90.9016C193.484 88.8193 192.398 86.1423 191.34 82.8706C191.062 81.9573 190.801 80.4981 190.555 78.4931L190.307 76.7285C190.2 75.9976 190.167 75.4385 190.209 75.0514C190.248 74.6324 189.61 74.4134 188.295 74.3943C187.814 74.3905 187.556 74.0851 187.52 73.4781C187.78 72.4371 188.239 71.8011 188.899 71.5701C189.526 71.341 189.902 70.9183 190.026 70.302C190.149 69.6537 190.238 68.9913 190.295 68.3148C190.46 66.2216 190.388 63.9018 190.079 61.3555C189.944 60.1454 190.27 59.421 191.057 59.1825L191.491 59.2052C191.653 59.2278 192.024 59.2701 192.605 59.3322C193.184 59.3624 193.703 59.4762 194.163 59.6736C195.317 60.215 195.939 61.2524 196.029 62.7857C196.066 63.4246 195.987 64.2627 195.792 65.2999C195.769 65.4615 195.729 65.6081 195.673 65.7396C195.617 65.8712 195.577 66.0177 195.555 66.1793C195.487 66.6641 195.462 67.0662 195.481 67.3857C195.25 68.3609 195.501 68.827 196.236 68.7839C196.492 68.7689 197.121 68.5717 198.125 68.1923ZM217.874 72.3716C218.159 72.3228 218.399 72.3087 218.592 72.3295C218.784 72.3182 218.96 72.3079 219.12 72.2986C219.341 72.2535 219.676 72.2179 220.123 72.1916C222.295 72.0643 224.472 72.5617 226.654 73.684C227.614 74.2047 228.112 74.7845 228.15 75.4234C228.191 76.1262 227.748 76.7772 226.822 77.3764C226.051 77.9024 225.254 78.5102 224.429 79.1996C222.955 80.3118 221.692 81.1872 220.64 81.8259C219.619 82.4627 218.477 82.9304 217.212 83.2289C217.024 83.3041 216.827 83.4919 216.62 83.7926C216.443 84.0594 216.375 84.2557 216.414 84.3816C216.489 84.5695 216.624 84.9623 216.82 85.5599C217.013 86.1255 217.218 86.6104 217.434 87.0144C217.68 87.3847 217.954 87.6891 218.257 87.9278C218.591 88.1647 219.078 88.2644 219.717 88.2269C220.356 88.1894 220.941 88.059 221.473 87.8354C223.337 86.8286 225.093 85.6038 226.739 84.1609C227.229 83.7796 227.666 83.5776 228.05 83.5552C228.529 83.5271 229.055 83.7527 229.628 84.2319C230.032 84.5609 230.245 84.917 230.268 85.3003C230.292 85.7156 230.018 86.2445 229.447 86.8871C226.887 89.6977 224.074 91.193 221.007 91.3728C220.177 91.4215 219.145 91.3217 217.912 91.0734C215.838 90.6821 214.206 89.6399 213.017 87.9466C211.828 86.2533 211.167 84.2726 211.034 82.0045C210.993 81.3017 211.001 80.628 211.06 79.9835C211.078 79.758 211.115 79.291 211.17 78.5826C211.254 77.8404 211.41 77.2222 211.638 76.728C212.711 74.261 214.79 72.8088 217.874 72.3716ZM220.855 75.6587C220.269 75.5008 219.752 75.4349 219.305 75.4611C218.57 75.5042 218.008 75.7615 217.619 76.2331C217.23 76.7047 216.934 77.3952 216.731 78.3046C217.503 78.3555 218.307 78.1161 219.141 77.5864C220.006 77.0228 220.577 76.3802 220.855 75.6587ZM239.71 90.9013C237.026 91.0586 235.25 90.0088 234.38 87.7518C234.636 87.7368 234.972 87.7331 235.389 87.7407C235.837 87.7145 236.206 87.7249 236.497 87.772C236.948 87.8096 237.27 87.8228 237.461 87.8116C238.899 87.7273 240.059 87.0182 240.943 85.6842C241.559 84.7184 241.839 83.7564 241.783 82.798C241.746 82.1591 241.549 81.5456 241.194 80.9573C240.419 79.7527 239.476 78.4296 238.365 76.9881C237.636 76.0372 236.974 75.1304 236.379 74.2677C235.68 73.283 235.294 72.1676 235.221 70.9218C235.153 69.7718 235.414 68.7468 236.002 67.8468C236.621 66.913 237.562 66.2968 238.827 65.9983L240.343 65.6209C241.986 65.204 243.222 64.9713 244.053 64.9226C245.426 64.842 246.659 65.0903 247.751 65.6674C247.984 65.814 248.224 66.0884 248.472 66.4906C248.75 66.8589 248.96 67.1512 249.101 67.3673C248.883 67.4762 248.572 67.6547 248.17 67.9027C247.798 68.1168 247.469 68.2483 247.184 68.2971C246.74 68.3872 246.071 68.4585 245.177 68.5109C244.314 68.5615 243.66 68.6159 243.215 68.674C242.198 68.8298 241.404 69.229 240.833 69.8715C240.292 70.4802 240.045 71.1999 240.094 72.0305C240.131 72.6694 240.362 73.313 240.784 73.9614C241.731 75.3483 243.025 76.9233 244.667 78.6862C245.902 80.0563 246.564 81.508 246.654 83.0414C246.702 83.872 246.562 84.7617 246.233 85.7106C245.111 88.9819 242.936 90.7121 239.71 90.9013Z" fill="black"/>
</svg>
